<svg xmlns="http://www.w3.org/2000/svg" width="30" height="30" viewBox="0 0 30 30" fill="none">
  <mask id="path-1-inside-1_143_194" fill="white">
    <path fill-rule="evenodd" clip-rule="evenodd" d="M4.872 10.0018C2.18127 12.7637 2.18127 17.2416 4.872 20.0036L4.872 20.0036L14.616 30.0053L24.36 20.0036C27.0507 17.2416 27.0507 12.7637 24.36 10.0018C21.6693 7.23987 17.3067 7.23986 14.616 10.0018C11.9253 7.23987 7.56273 7.23987 4.872 10.0018Z"/>
  </mask>
  <path fill-rule="evenodd" clip-rule="evenodd" d="M4.872 10.0018C2.18127 12.7637 2.18127 17.2416 4.872 20.0036L4.872 20.0036L14.616 30.0053L24.36 20.0036C27.0507 17.2416 27.0507 12.7637 24.36 10.0018C21.6693 7.23987 17.3067 7.23986 14.616 10.0018C11.9253 7.23987 7.56273 7.23987 4.872 10.0018Z" fill="#E59850"/>
  <path d="M14.616 30.0053L13.2204 31.4379L14.616 32.8704L16.0116 31.4379L14.616 30.0053ZM14.616 10.0018L13.2204 11.4343L14.616 12.8669L16.0116 11.4343L14.616 10.0018ZM6.26763 18.571C4.34769 16.6003 4.34769 13.4051 6.26763 11.4343L3.47637 8.56923C0.0148512 12.1223 0.0148449 17.883 3.47636 21.4361L6.26763 18.571ZM6.26763 18.571L6.26763 18.571L3.47636 21.4361L3.47637 21.4361L6.26763 18.571ZM16.0116 28.5728L6.26763 18.571L3.47637 21.4361L13.2204 31.4379L16.0116 28.5728ZM22.9644 18.571L13.2204 28.5728L16.0116 31.4379L25.7556 21.4361L22.9644 18.571ZM22.9644 11.4343C24.8843 13.4051 24.8843 16.6003 22.9644 18.571L25.7556 21.4361C29.2172 17.883 29.2172 12.1223 25.7556 8.56923L22.9644 11.4343ZM16.0116 11.4343C17.9316 9.46359 21.0444 9.4636 22.9644 11.4343L25.7556 8.56923C22.2941 5.01614 16.6819 5.01613 13.2204 8.56923L16.0116 11.4343ZM6.26763 11.4343C8.18758 9.4636 11.3004 9.4636 13.2204 11.4343L16.0116 8.56923C12.5501 5.01614 6.93789 5.01614 3.47637 8.56923L6.26763 11.4343Z" fill="#E59850" mask="url(#path-1-inside-1_143_194)"/>
</svg>