<svg xmlns="http://www.w3.org/2000/svg" width="43" height="43" viewBox="0 0 43 43" fill="none">
  <path d="M39.647 21.555C39.647 20.0338 39.521 18.9237 39.2484 17.7725H21.5235V24.6384H31.9276C31.718 26.3447 30.5852 28.9143 28.068 30.6409L28.0328 30.8708L33.6371 35.1256L34.0253 35.1635C37.5912 31.9361 39.647 27.1875 39.647 21.555Z" fill="#4285F4"/>
  <path d="M21.5223 39.6451C26.6195 39.6451 30.8986 38.0005 34.0241 35.1637L28.0668 30.6411C26.4727 31.7306 24.3331 32.4912 21.5223 32.4912C16.53 32.4912 12.2929 29.2639 10.7825 24.803L10.5611 24.8214L4.73365 29.2412L4.65745 29.4488C7.76189 35.4925 14.1387 39.6451 21.5223 39.6451Z" fill="#34A853"/>
  <path d="M10.7836 24.8031C10.385 23.652 10.1544 22.4185 10.1544 21.144C10.1544 19.8694 10.385 18.6361 10.7626 17.4849L10.752 17.2397L4.85158 12.749L4.65853 12.839C3.37904 15.347 2.64486 18.1633 2.64486 21.144C2.64486 24.1247 3.37904 26.9409 4.65853 29.4489L10.7836 24.8031Z" fill="#FBBC05"/>
  <path d="M21.5224 9.7967C25.0674 9.7967 27.4586 11.2973 28.8221 12.5514L34.1501 7.45328C30.8779 4.47257 26.6196 2.64301 21.5224 2.64301C14.1387 2.64301 7.7619 6.79544 4.65745 12.8391L10.7615 17.4849C12.2929 13.0241 16.5301 9.7967 21.5224 9.7967Z" fill="#EB4335"/>
</svg>