<svg xmlns="http://www.w3.org/2000/svg" width="30" height="30" viewBox="0 0 30 30" fill="none">
  <path d="M22.5 11.875C22.5 16.3625 18.3 20 13.125 20C11.6185 20.0094 10.1272 19.6984 8.75002 19.0875L7.93752 19.4375L3.75002 21.25L5.18752 16.25C4.24725 14.9858 3.7428 13.4505 3.75002 11.875C3.75002 7.3875 7.95002 3.75 13.125 3.75C17.6625 3.75 21.45 6.55 22.3125 10.2625C22.4386 10.7907 22.5015 11.332 22.5 11.875Z" stroke="#BBBBBB" stroke-width="2" stroke-linecap="round" stroke-linejoin="round"/>
  <path d="M22.3125 10.2625C23.4821 10.933 24.459 11.8938 25.1488 13.0522C25.8385 14.2105 26.2178 15.5272 26.25 16.875C26.2572 18.4505 25.7528 19.9858 24.8125 21.25L26.25 26.25L21.25 24.0875C19.8728 24.6984 18.3815 25.0095 16.875 25C15.007 25.0689 13.1613 24.5756 11.5768 23.5839C9.99231 22.5922 8.74193 21.1478 7.98749 19.4375" stroke="#BBBBBB" stroke-width="2" stroke-linecap="round" stroke-linejoin="round"/>
</svg>