<svg xmlns="http://www.w3.org/2000/svg" width="13" height="16" viewBox="0 0 22 23" fill="none">
  <path d="M10.8947 1L2.79904 10.0821V20.9806C2.79904 21.2215 2.89381 21.4525 3.0625 21.6228C3.2312 21.7931 3.46 21.8888 3.69856 21.8888H18.0909C18.3295 21.8888 18.5583 21.7931 18.727 21.6228C18.8957 21.4525 18.9904 21.2215 18.9904 20.9806V10.0821L10.8947 1Z" stroke="#BBBBBB" stroke-width="2" stroke-linecap="round" stroke-linejoin="round"/>
  <path d="M10.8947 1L1 11.8985" stroke="#BBBBBB" stroke-width="2" stroke-linecap="round" stroke-linejoin="round"/>
  <path d="M10.8947 1L20.7895 11.8985" stroke="#BBBBBB" stroke-width="2" stroke-linecap="round" stroke-linejoin="round"/>
  <path d="M10.8947 13.715C12.3851 13.715 13.5933 12.4951 13.5933 10.9903C13.5933 9.48556 12.3851 8.2657 10.8947 8.2657C9.40436 8.2657 8.19617 9.48556 8.19617 10.9903C8.19617 12.4951 9.40436 13.715 10.8947 13.715Z" stroke="#BBBBBB" stroke-width="2" stroke-linecap="round" stroke-linejoin="round"/>
</svg>