<svg xmlns="http://www.w3.org/2000/svg" width="30" height="30" viewBox="0 0 30 30" fill="none">
  <path d="M9.425 23.75H5C4.66848 23.75 4.35054 23.6183 4.11612 23.3839C3.8817 23.1495 3.75 22.8315 3.75 22.5V6.25C3.75 5.91848 3.8817 5.60054 4.11612 5.36612C4.35054 5.1317 4.66848 5 5 5H25C25.3315 5 25.6495 5.1317 25.8839 5.36612C26.1183 5.60054 26.25 5.91848 26.25 6.25V22.5C26.25 22.8315 26.1183 23.1495 25.8839 23.3839C25.6495 23.6183 25.3315 23.75 25 23.75H20.575" stroke="#BBBBBB" stroke-width="2" stroke-linecap="round" stroke-linejoin="round"/>
  <path d="M3.75 11.25H26.25M20 3.75V7.5V3.75ZM10 3.75V7.5V3.75ZM15 11.25C13.5166 11.25 12.0666 11.6899 10.8332 12.514C9.59985 13.3381 8.63856 14.5094 8.0709 15.8799C7.50325 17.2503 7.35472 18.7583 7.64411 20.2132C7.9335 21.668 8.64781 23.0044 9.6967 24.0533C10.7456 25.1022 12.082 25.8165 13.5368 26.1059C14.9917 26.3953 16.4997 26.2468 17.8701 25.6791C19.2406 25.1114 20.4119 24.1501 21.236 22.9168C22.0601 21.6834 22.5 20.2334 22.5 18.75C22.5 16.7609 21.7098 14.8532 20.3033 13.4467C18.8968 12.0402 16.9891 11.25 15 11.25Z" stroke="#BBBBBB" stroke-width="2" stroke-linecap="round" stroke-linejoin="round"/>
  <path d="M12.5 20L13.75 21.25L17.5 17.5" stroke="#BBBBBB" stroke-width="2" stroke-linecap="round" stroke-linejoin="round"/>
</svg>