<svg width="50" height="46" viewBox="0 0 50 46" fill="none" xmlns="http://www.w3.org/2000/svg">
<path d="M45.5069 44.9759C45.5069 43.1937 44.0385 41.7489 42.2272 41.7489H34.8477C34.2634 41.7489 33.7042 41.8996 33.2078 42.1832V45.3792H45.1995C45.3693 45.3792 45.5069 45.2438 45.5069 45.0767V44.9759Z" fill="white"/>
<path d="M10.6592 39.9337C12.697 39.9337 14.349 38.3084 14.349 36.3034C14.349 34.2984 12.697 32.673 10.6592 32.673C8.62144 32.673 6.96948 34.2984 6.96948 36.3034C6.96948 38.3084 8.62144 39.9337 10.6592 39.9337Z" fill="white"/>
<path d="M11.4792 16.1349V8.06744H2.45984C1.10347 8.06744 0 9.15313 0 10.4877V22.1854C0 23.52 1.10345 24.6057 2.45984 24.6057C2.91269 24.6057 3.27979 24.9668 3.27979 25.4124V29.7516C3.27979 29.9949 3.45674 30.0933 3.53287 30.1243C3.60893 30.1552 3.80486 30.2088 3.97962 30.0368L9.25956 24.842C9.4133 24.6906 9.62188 24.6057 9.83933 24.6057H15.9889C17.3453 24.6057 18.4487 23.52 18.4487 22.1854V20.1686H15.5789C13.3183 20.1686 11.4792 18.3591 11.4792 16.1349Z" fill="white"/>
<path d="M38.5374 39.9337C40.5752 39.9337 42.2272 38.3084 42.2272 36.3034C42.2272 34.2984 40.5752 32.673 38.5374 32.673C36.4996 32.673 34.8477 34.2984 34.8477 36.3034C34.8477 38.3084 36.4996 39.9337 38.5374 39.9337Z" fill="white"/>
<path d="M24.5983 36.7068C26.6361 36.7068 28.2881 35.0814 28.2881 33.0764C28.2881 31.0715 26.6361 29.4461 24.5983 29.4461C22.5605 29.4461 20.9086 31.0715 20.9086 33.0764C20.9086 35.0814 22.5605 36.7068 24.5983 36.7068Z" fill="white"/>
<path d="M31.5678 41.7489C31.5678 39.9695 30.0965 38.5219 28.2881 38.5219H20.9086C19.1001 38.5219 17.6288 39.9695 17.6288 41.7489V45.3792H31.5678V41.7489Z" fill="white"/>
<path d="M14.349 41.7489H6.96947C5.1581 41.7489 3.6897 43.1937 3.6897 44.9759V45.0767C3.6897 45.2438 3.82736 45.3792 3.99718 45.3792H15.9889V42.1832C15.4924 41.8996 14.9332 41.7489 14.349 41.7489Z" fill="white"/>
<path d="M36.0775 16.1348V7.26068V2.42023C36.0775 1.0857 34.974 0 33.6176 0H15.5789C14.2225 0 13.119 1.08568 13.119 2.42023V7.26068V16.1348C13.119 17.4694 14.2225 18.5551 15.5789 18.5551H19.2686H20.0886C20.3579 18.5551 20.61 18.6852 20.7631 18.9032L24.2791 23.9091C24.3857 24.0609 24.5335 24.0825 24.6173 24.0831C24.6978 24.0829 24.8488 24.0599 24.9547 23.9074L28.4311 18.9064C28.5839 18.6865 28.8372 18.5551 29.1079 18.5551H29.9279H33.6176C34.9739 18.5551 36.0775 17.4694 36.0775 16.1348ZM31.1578 12.5045H24.5982C24.1454 12.5045 23.7783 12.1433 23.7783 11.6978C23.7783 11.2522 24.1454 10.891 24.5982 10.891H31.1578C31.6106 10.891 31.9777 11.2522 31.9777 11.6978C31.9777 12.1433 31.6106 12.5045 31.1578 12.5045ZM31.1578 7.26068H18.0387C17.5858 7.26068 17.2188 6.89952 17.2188 6.45394C17.2188 6.00838 17.5858 5.6472 18.0387 5.6472H31.1578C31.6106 5.6472 31.9777 6.00836 31.9777 6.45394C31.9777 6.8995 31.6106 7.26068 31.1578 7.26068Z" fill="white"/>
<path d="M33.6177 20.1686H30.7479V22.1854C30.7479 23.52 31.8514 24.6057 33.2077 24.6057H39.3573C39.5748 24.6057 39.7833 24.6907 39.9372 24.842L45.217 30.0368C45.3918 30.2089 45.5878 30.1553 45.6638 30.1243C45.7399 30.0933 45.9169 29.9949 45.9169 29.7516V25.4124C45.9169 24.9668 46.284 24.6057 46.7368 24.6057C48.0932 24.6057 49.1967 23.52 49.1967 22.1854V10.4877C49.1967 9.15313 48.0932 8.06744 46.7368 8.06744H37.7174V16.1349C37.7174 18.3591 35.8783 20.1686 33.6177 20.1686Z" fill="white"/>
</svg>
