<svg width="46" height="46" viewBox="0 0 46 46" fill="none" xmlns="http://www.w3.org/2000/svg">
<path d="M42.1672 27.6591C40.579 28.4698 38.6417 28.5011 37.0582 27.6605C35.5034 26.8352 34.4704 25.224 34.3909 23.4626C34.3121 21.7189 35.1531 20.0239 36.5247 18.9615C37.955 17.8537 39.8837 17.4668 41.619 18.0011C43.3016 18.5191 44.6365 19.8788 45.0659 21.5942C45.487 23.2765 44.981 25.085 43.8372 26.3721C43.3672 26.9008 42.7971 27.3376 42.1672 27.6591Z" fill="white"/>
<path d="M33.5973 22.5655C33.5872 22.3383 33.6058 22.1135 33.5769 21.8864C33.5483 21.6621 33.549 21.4335 33.5406 21.2075C33.5202 20.6572 33.4997 20.1071 33.4793 19.5568C33.434 18.3383 33.401 17.119 33.3731 15.9C33.3443 14.6316 33.3161 13.3631 33.2941 12.0946C33.2846 11.5493 33.2874 11.0021 33.2632 10.4572C33.2386 9.90334 33.2146 9.34948 33.1903 8.79563C33.137 7.58015 33.093 6.36351 33.0639 5.14716C33.0389 4.0985 33.0305 3.04975 33.0102 2.0011C32.9931 1.11761 32.3855 0.323918 31.5361 0.0786177C30.6785 -0.169123 29.7364 0.185113 29.2526 0.934388C29.0283 1.28179 28.9295 1.67654 28.9272 2.08719C28.9243 2.59664 28.9158 3.10598 28.9074 3.61542C28.8877 4.8102 28.8537 6.00498 28.8092 7.19917C28.7843 7.86821 28.7591 8.53725 28.7297 9.20609C28.709 9.67727 28.6708 10.1511 28.6674 10.6227C28.6676 10.598 28.664 10.5696 28.6683 10.5453C28.6438 10.683 28.6472 10.8346 28.6366 10.9733C28.6126 11.2881 28.5887 11.6028 28.5646 11.9176C28.5162 12.5535 28.4658 13.1894 28.416 13.8253C28.3668 14.4547 28.3142 15.0839 28.2627 15.7132C28.2377 16.0193 28.2112 16.3252 28.185 16.6311C28.1801 16.6898 28.2567 16.7019 28.3065 16.7257C28.3579 16.7503 28.4091 16.7754 28.4601 16.8008C28.575 16.858 28.6889 16.917 28.8021 16.9776C29.1382 17.1575 29.4691 17.3491 29.7868 17.56C29.9073 17.64 30.0267 17.7228 30.139 17.8141C30.2056 17.8681 30.2871 17.9295 30.3274 18.0076C29.5968 17.7683 28.8687 17.5077 28.1275 17.3025C28.1288 17.2873 27.6221 17.1651 27.5707 17.1519C27.3699 17.0999 27.1681 17.0514 26.9658 17.006C26.5381 16.9102 26.1072 16.8286 25.6744 16.7598C23.5532 16.4224 21.3912 16.3843 19.2498 16.4991C18.1618 16.5575 17.0709 16.6677 16.0167 16.9545C15.6149 17.0638 15.2191 17.1989 14.8394 17.3704C14.6718 17.4461 14.5074 17.5289 14.3476 17.6198C14.275 17.6611 14.2034 17.704 14.1328 17.7487C14.0125 17.7797 13.8938 17.817 13.7775 17.8604C13.3255 18.0289 12.9089 18.2893 12.5608 18.6233C12.2338 18.9369 12.0006 19.3064 11.7846 19.7003C11.2646 20.6486 10.7538 21.6024 10.2493 22.559C9.09198 24.7532 7.96036 26.9605 6.84308 29.1752C6.60423 29.6487 6.34419 30.1168 6.127 30.6006C5.98155 30.9245 5.83611 31.2484 5.69067 31.5723C5.16502 32.7428 4.64289 33.9147 4.1233 35.0878C3.15381 37.2772 2.20999 39.4776 1.27809 41.6831C1.10795 42.0858 0.939174 42.489 0.774697 42.894C0.602508 43.3102 0.560534 43.7749 0.653559 44.2156C0.843319 45.1151 1.58625 45.8254 2.49463 45.972C3.37188 46.1136 4.27323 45.7092 4.75027 44.9597C5.28538 44.1186 5.77364 43.2452 6.28132 42.3875C7.53653 40.2671 8.75229 38.1232 9.96991 35.9812C10.5032 35.0431 11.0274 34.0999 11.5556 33.159C11.5534 33.1632 11.5511 33.1675 11.5488 33.1717C11.5547 33.1613 11.56 33.1507 11.5658 33.1403C11.5358 33.1943 11.5071 33.2491 11.4777 33.3034C12.557 31.6636 13.6385 30.0245 14.701 28.3742C15.0669 27.8059 15.4196 27.229 15.7759 26.6547C15.798 26.7527 15.7681 26.8684 15.7483 26.9641C15.7121 27.1383 15.6624 27.3098 15.6095 27.4797C15.4751 27.9111 15.315 28.3355 15.1362 28.7505C15.0947 28.8468 15.0519 28.9426 15.0075 29.0377C14.9866 29.0824 14.9653 29.1269 14.9437 29.1712C14.9332 29.1925 14.9227 29.2138 14.9121 29.2349C14.8881 29.2829 14.8991 29.2899 14.9258 29.3371C15.0758 29.6012 15.2268 29.8646 15.3779 30.1282C15.6853 30.665 15.995 31.2005 16.3061 31.7351C16.6063 32.2508 16.9073 32.766 17.2113 33.2794C17.3686 33.5451 17.5259 33.8107 17.6831 34.0764C17.7509 34.1911 17.8188 34.3057 17.8865 34.4204C17.9082 34.457 17.9376 34.4946 17.9535 34.5342C17.9238 34.4596 17.885 34.3884 17.8531 34.3147C18.1007 34.8862 18.396 35.4425 18.6667 36.003C19.2206 37.1503 19.7798 38.2949 20.3461 39.436C20.8848 40.5213 21.4291 41.6037 21.9792 42.6833C22.2327 43.181 22.4883 43.6776 22.748 44.1719C22.8985 44.4582 23.0348 44.7679 23.2237 45.0321C23.7674 45.7929 24.7571 46.1428 25.6578 45.8918C26.5193 45.6517 27.1703 44.9028 27.2872 44.016C27.3346 43.6559 27.2846 43.3051 27.1744 42.9615C27.0351 42.5264 26.8953 42.0914 26.753 41.6572C26.3802 40.5207 26.0008 39.3861 25.6096 38.2558C24.9152 36.2491 24.2065 34.2478 23.4891 32.2491C23.4634 32.1775 23.4377 32.1059 23.412 32.0343C23.4179 32.0473 23.4245 32.0601 23.4299 32.0732C23.3985 31.9986 23.3557 31.9105 23.3257 31.8452C23.1256 31.3626 22.926 30.8798 22.7258 30.3972C22.6095 30.1164 22.4926 29.8358 22.3749 29.5554C22.3171 29.4178 22.2592 29.2802 22.2009 29.1429C22.0851 29.1293 21.9697 29.1132 21.8546 29.0955C21.3952 29.0245 20.9381 28.9303 20.489 28.8104C20.3132 28.7635 20.1378 28.7129 19.9672 28.6498C19.8698 28.6137 19.7468 28.5755 19.6714 28.4996C20.4875 28.5087 21.3144 28.5244 22.1231 28.5051C23.2737 28.4777 24.4242 28.3892 25.5622 28.2143C26.4279 28.0813 27.2864 27.8977 28.1273 27.6517C28.2298 28.8492 28.3312 30.0469 28.4249 31.2452C28.4726 31.8559 28.521 32.4667 28.5676 33.0776C28.5906 33.3796 28.6136 33.6816 28.6366 33.9836C28.6471 34.1223 28.6438 34.2739 28.6683 34.4115C28.664 34.3872 28.6676 34.3588 28.6674 34.3341C28.6703 34.7431 28.7036 35.154 28.7214 35.5626C28.7487 36.1853 28.7737 36.808 28.7969 37.4308C28.8413 38.6229 28.8864 39.8162 28.9019 41.009C28.9089 41.5505 28.9232 42.0919 28.9257 42.6335C28.9277 43.049 28.9501 43.4406 29.1386 43.821C29.5342 44.6195 30.4277 45.0768 31.3068 44.9303C32.1752 44.7856 32.8705 44.0707 32.9911 43.1986C33.017 43.0116 33.0111 42.8218 33.012 42.6335C33.0132 42.3805 33.0175 42.1275 33.0217 41.8745C33.0312 41.2993 33.0401 40.7242 33.0552 40.149C33.1158 37.8345 33.2477 35.5222 33.2879 33.2075C33.3313 30.7137 33.3898 28.2204 33.4676 25.7274C33.4852 25.1636 33.5087 24.5998 33.5297 24.0361C33.5377 23.8203 33.5457 23.6044 33.5538 23.3885C33.5641 23.1129 33.6095 22.842 33.5973 22.5655Z" fill="white"/>
</svg>
