<svg xmlns="http://www.w3.org/2000/svg" width="35" height="35" viewBox="0 0 35 35" fill="none">
  <path d="M8.75 11.6667C6.5625 11.6667 6.5625 14.5833 8.75 14.5833L11.6674 14.5833C12.4728 14.5833 13.125 15.2315 13.125 16.0369V29.8958C13.125 32.0833 16.0417 32.0833 16.0417 29.8958C16.0417 27.7083 16.0417 23.3333 17.5 23.3333C18.9583 23.3333 18.9583 27.7083 18.9583 29.8958C18.9583 32.0833 21.875 32.0833 21.875 29.8958V16.0417C21.875 15.2362 22.5279 14.5833 23.3333 14.5833H26.25C28.4375 14.5833 28.4375 11.6667 26.25 11.6667H8.75Z" stroke="white" stroke-width="2" stroke-linecap="round"/>
  <path d="M20.4167 6.56251C20.4167 8.17334 19.1108 9.47918 17.5 9.47918C15.8892 9.47918 14.5833 8.17334 14.5833 6.56251C14.5833 4.95168 15.8892 3.64584 17.5 3.64584C19.1108 3.64584 20.4167 4.95168 20.4167 6.56251Z" stroke="white" stroke-width="2"/>
</svg>