<svg xmlns="http://www.w3.org/2000/svg" width="26" height="26" viewBox="0 0 26 26" fill="none">
  <path d="M20.6241 5.24143L23.1775 7.79487M20.6241 5.24143L18.0706 2.68799M20.6241 5.24143L23.1775 2.68799M17.0493 1.66661C17.4481 2.06548 18.0706 2.68799 18.0706 2.68799M24.1989 8.81624C23.8 8.41737 23.1775 7.79487 23.1775 7.79487M23.1775 7.79487L18.0706 12.9018M18.0706 2.68799L12.9638 7.79487M10.4103 18.5193L10.7246 18.8336C11.1151 19.2241 11.7483 19.2241 12.1388 18.8336L18.0706 12.9018M10.4103 18.5193L9.89964 19.03C9.0535 19.8761 7.68164 19.8761 6.83551 19.03V19.03V19.03C5.98937 18.1839 5.98937 16.812 6.83551 15.9659L7.3462 15.4552M10.4103 18.5193L7.3462 15.4552M7.3462 15.4552L7.03193 15.1409C6.6414 14.7504 6.6414 14.1172 7.03193 13.7267L12.9638 7.79487M12.9638 7.79487L18.0706 12.9018M23.1775 2.68799L22.1842 1.69465C22.166 1.67646 22.1542 1.65282 22.1507 1.62733C22.1476 1.60492 22.1748 1.59141 22.1908 1.60741L24.2581 3.67472C24.2741 3.69072 24.2606 3.71789 24.2382 3.71479C24.2127 3.71127 24.189 3.69952 24.1709 3.68133L23.1775 2.68799Z" stroke="#7FAF69" stroke-linecap="round"/>
  <path d="M2.64106 23.2244L6.83545 19.03" stroke="#7FAF69" stroke-linecap="round"/>
  <path d="M12.9637 16.9872L11.9423 15.9659" stroke="#7FAF69" stroke-linecap="round"/>
  <path d="M14.4958 15.4552L13.4744 14.4338" stroke="#7FAF69" stroke-linecap="round"/>
  <path d="M16.0278 13.9231L15.0065 12.9017" stroke="#7FAF69" stroke-linecap="round"/>
</svg>