<svg xmlns="http://www.w3.org/2000/svg" width="26" height="27" viewBox="0 0 26 27" fill="none">
  <path d="M22.0918 13.5C22.3931 12.5392 22.5556 11.5759 22.5556 10.6416C22.5556 7.47191 20.1486 4.90741 17.1809 4.90741C15.4312 4.90741 13.8652 5.81012 12.8889 7.2052C11.9126 5.81012 10.3562 4.90741 8.5969 4.90741C5.62923 4.90741 3.22223 7.47191 3.22223 10.6416C3.22223 11.8208 3.40739 12.9576 3.74889 14.037M22.0918 13.5C20.8438 17.4794 17.2148 21.4145 12.8889 23.0544C8.63342 21.4412 5.05236 18.1571 3.74889 14.037M22.0918 13.5H19.4446C19.3734 13.5 19.3051 13.4717 19.2547 13.4214L17.9857 12.1523C17.8561 12.0227 17.6376 12.0582 17.5556 12.2221L16.2777 14.7779C16.1958 14.9418 15.9773 14.9773 15.8477 14.8477L14.7241 13.7241C14.6068 13.6068 14.4122 13.6229 14.3158 13.7579L12.161 16.7746C12.0266 16.9628 11.7329 16.9043 11.6809 16.6789L10.3608 10.9585C10.3055 10.7189 9.98388 10.6735 9.86443 10.8885L7.71962 14.7491C7.62514 14.9192 7.3868 14.9355 7.27008 14.7798L6.09318 13.2106C5.99513 13.0799 5.80404 13.0663 5.68849 13.1819L4.91199 13.9584C4.86163 14.0087 4.79333 14.037 4.72212 14.037H4.24069H3.74889" stroke="#7FAF69" stroke-linecap="round" stroke-linejoin="round"/>
</svg>