<svg width="46" height="44" viewBox="0 0 46 44" fill="none" xmlns="http://www.w3.org/2000/svg">
<path d="M37.8378 0.6875H8.18144C4.08522 0.6875 0.767334 3.95059 0.767334 7.97917V12.7006H45.2519V7.97917C45.2519 3.95059 41.9155 0.6875 37.8378 0.6875ZM28.5331 8.50788H17.4676C16.4481 8.50788 15.6141 7.7058 15.6141 6.68497C15.6141 5.68239 16.4481 4.86205 17.4676 4.86205H28.5331C29.5712 4.86205 30.3866 5.68239 30.3866 6.68497C30.3866 7.7058 29.5712 8.50788 28.5331 8.50788Z" fill="white"/>
<path d="M0.767334 16.3464V36.7083C0.767334 40.7188 4.08522 44 8.18144 44H37.8378C41.9155 44 45.2519 40.7188 45.2519 36.7083V16.3464H0.767334ZM25.9755 35.4323C25.2794 36.1522 24.0735 36.1695 23.3617 35.4323L20.8783 33.0079C20.5258 32.6615 20.3407 32.1875 20.3407 31.7135V24.6224C20.3407 23.6198 21.1561 22.7995 22.1942 22.7995C23.2133 22.7995 24.0477 23.6198 24.0477 24.6224V30.948L25.9755 32.862C26.6981 33.573 26.6981 34.7214 25.9755 35.4323Z" fill="white"/>
</svg>
