<svg width="42" height="43" viewBox="0 0 42 43" fill="none" xmlns="http://www.w3.org/2000/svg">
<circle cx="20.9235" cy="21.4512" r="20.9235" fill="#ECEFF2"/>
<path d="M20.5406 15.8372L21.0709 16.3676L20.5406 15.8372ZM12.9415 20.7846L13.4688 21.318L13.4718 21.315L12.9415 20.7846ZM12.9044 20.8234L13.4612 21.3259L13.4612 21.3259L12.9044 20.8234ZM12.6631 21.4514H11.9131C11.9131 21.7321 12.0699 21.9894 12.3195 22.118C12.5692 22.2467 12.8697 22.2251 13.0984 22.0621L12.6631 21.4514ZM15.8639 20.5139L15.3336 19.9835C15.193 20.1242 15.1139 20.3149 15.1139 20.5138L15.8639 20.5139ZM12.9377 22.1143L13.468 21.584H13.468L12.9377 22.1143ZM19.2147 28.3913L18.6844 28.9217L19.2147 28.3913ZM12.6631 21.4542L13.3993 21.3113C13.3256 20.9315 12.9752 20.6701 12.5902 20.7077C12.2052 20.7453 11.9119 21.0696 11.9131 21.4564L12.6631 21.4542ZM20.0102 15.0417C20.0834 15.115 20.0834 15.2337 20.0102 15.3069L21.0709 16.3676C21.7299 15.7085 21.7299 14.6401 21.0709 13.9811L20.0102 15.0417ZM19.7451 15.0417C19.8183 14.9685 19.937 14.9685 20.0102 15.0417L21.0709 13.9811C20.4119 13.3221 19.3434 13.3221 18.6844 13.9811L19.7451 15.0417ZM13.4718 21.315L19.7451 15.0417L18.6844 13.9811L12.4112 20.2543L13.4718 21.315ZM13.4612 21.3259C13.4636 21.3232 13.4662 21.3206 13.4688 21.318L12.4142 20.2513C12.3914 20.2739 12.3692 20.2971 12.3477 20.3209L13.4612 21.3259ZM13.4131 21.4514C13.4131 21.4026 13.4307 21.3597 13.4612 21.3259L12.3477 20.3209C12.0781 20.6196 11.9131 21.0171 11.9131 21.4514H13.4131ZM13.0984 22.0621L20.9758 16.448L20.1053 15.2265L12.2278 20.8406L13.0984 22.0621ZM20.0102 15.3069L15.3336 19.9835L16.3943 21.0442L21.0709 16.3676L20.0102 15.3069ZM20.0102 15.3069L15.3336 19.9835L16.3943 21.0442L21.0709 16.3676L20.0102 15.3069ZM28.2471 21.6389H15.8639V23.1389H28.2471V21.6389ZM28.4346 21.4514C28.4346 21.5549 28.3506 21.6389 28.2471 21.6389V23.1389C29.179 23.1389 29.9346 22.3833 29.9346 21.4514H28.4346ZM28.2471 21.2639C28.3506 21.2639 28.4346 21.3478 28.4346 21.4514H29.9346C29.9346 20.5194 29.179 19.7639 28.2471 19.7639V21.2639ZM15.8639 21.2639H28.2471V19.7639H15.8639V21.2639ZM15.1139 20.5138L15.1139 22.3888L16.6139 22.3889L16.6139 20.5139L15.1139 20.5138ZM13.468 21.584C13.4485 21.5645 13.4352 21.5434 13.4265 21.5216L12.0342 22.0799C12.117 22.2864 12.2419 22.4792 12.4073 22.6446L13.468 21.584ZM19.7451 27.861L13.468 21.584L12.4073 22.6446L18.6844 28.9217L19.7451 27.861ZM20.0102 27.861C19.937 27.9342 19.8183 27.9342 19.7451 27.861L18.6844 28.9217C19.3434 29.5807 20.4119 29.5807 21.0709 28.9217L20.0102 27.861ZM20.0102 27.5958C20.0834 27.6691 20.0834 27.7878 20.0102 27.861L21.0709 28.9217C21.7299 28.2627 21.7299 27.1942 21.0709 26.5352L20.0102 27.5958ZM15.3336 22.9192L20.0102 27.5958L21.0709 26.5352L16.3942 21.8585L15.3336 22.9192ZM16.0022 21.6517L12.8687 21.0636L12.592 22.5379L15.7255 23.126L16.0022 21.6517ZM13.4263 21.5211C13.4181 21.5007 13.4132 21.4778 13.4131 21.452L11.9131 21.4564C11.9137 21.6755 11.9565 21.8865 12.0345 22.0804L13.4263 21.5211ZM13.4666 21.6578L13.3993 21.3113L11.9268 21.5971L11.9941 21.9437L13.4666 21.6578Z" fill="#2C2543"/>
</svg>
