<svg width="42" height="42" viewBox="0 0 42 42" fill="none" xmlns="http://www.w3.org/2000/svg">
<circle cx="20.9235" cy="20.9235" r="20.9235" transform="matrix(-1 0 0 1 42 0)" fill="#ECEFF2"/>
<path d="M20.873 15.3095L20.3427 15.8398L20.873 15.3095ZM28.4721 20.2569L27.9448 20.7902L27.9418 20.7872L28.4721 20.2569ZM28.5091 20.2957L27.9524 20.7982L27.9524 20.7982L28.5091 20.2957ZM28.7505 20.9236H29.5005C29.5005 21.2044 29.3436 21.4617 29.094 21.5903C28.8444 21.7189 28.5439 21.6973 28.3152 21.5343L28.7505 20.9236ZM25.5496 19.9861L26.08 19.4558C26.2206 19.5964 26.2996 19.7872 26.2996 19.9861L25.5496 19.9861ZM28.4759 21.5865L27.9456 21.0562H27.9456L28.4759 21.5865ZM22.1988 27.8636L22.7292 28.3939L22.1988 27.8636ZM28.7505 20.9264L28.0142 20.7835C28.0879 20.4038 28.4384 20.1424 28.8234 20.18C29.2084 20.2176 29.5016 20.5418 29.5005 20.9286L28.7505 20.9264ZM21.4033 14.514C21.3301 14.5872 21.3301 14.7059 21.4033 14.7791L20.3427 15.8398C19.6837 15.1808 19.6837 14.1123 20.3427 13.4533L21.4033 14.514ZM21.6685 14.514C21.5953 14.4407 21.4766 14.4407 21.4033 14.514L20.3427 13.4533C21.0017 12.7943 22.0702 12.7943 22.7292 13.4533L21.6685 14.514ZM27.9418 20.7872L21.6685 14.514L22.7292 13.4533L29.0024 19.7265L27.9418 20.7872ZM27.9524 20.7982C27.9499 20.7955 27.9474 20.7928 27.9448 20.7902L28.9994 19.7235C29.0222 19.7461 29.0444 19.7693 29.0659 19.7931L27.9524 20.7982ZM28.0005 20.9236C28.0005 20.8748 27.9829 20.8319 27.9524 20.7982L29.0659 19.7931C29.3355 20.0918 29.5005 20.4893 29.5005 20.9236H28.0005ZM28.3152 21.5343L20.4377 15.9202L21.3083 14.6987L29.1858 20.3128L28.3152 21.5343ZM21.4033 14.7791L26.08 19.4558L25.0193 20.5164L20.3427 15.8398L21.4033 14.7791ZM21.4033 14.7791L26.08 19.4558L25.0193 20.5164L20.3427 15.8398L21.4033 14.7791ZM13.1665 21.1111H25.5497V22.6111H13.1665V21.1111ZM12.979 20.9236C12.979 21.0271 13.063 21.1111 13.1665 21.1111V22.6111C12.2345 22.6111 11.479 21.8556 11.479 20.9236H12.979ZM13.1665 20.7361C13.063 20.7361 12.979 20.82 12.979 20.9236H11.479C11.479 19.9916 12.2345 19.2361 13.1665 19.2361V20.7361ZM25.5496 20.7361H13.1665V19.2361H25.5496V20.7361ZM26.2996 19.9861L26.2997 21.8611L24.7997 21.8611L24.7996 19.9861L26.2996 19.9861ZM27.9456 21.0562C27.965 21.0367 27.9784 21.0157 27.9871 20.9939L29.3793 21.5521C29.2965 21.7586 29.1717 21.9514 29.0062 22.1168L27.9456 21.0562ZM21.6685 27.3332L27.9456 21.0562L29.0062 22.1168L22.7292 28.3939L21.6685 27.3332ZM21.4033 27.3332C21.4766 27.4065 21.5953 27.4065 21.6685 27.3332L22.7292 28.3939C22.0702 29.0529 21.0017 29.0529 20.3427 28.3939L21.4033 27.3332ZM21.4033 27.0681C21.3301 27.1413 21.3301 27.26 21.4033 27.3332L20.3427 28.3939C19.6837 27.7349 19.6837 26.6664 20.3427 26.0074L21.4033 27.0681ZM26.08 22.3914L21.4033 27.0681L20.3427 26.0074L25.0194 21.3308L26.08 22.3914ZM25.4113 21.124L28.5449 20.5359L28.8215 22.0101L25.688 22.5982L25.4113 21.124ZM27.9873 20.9933C27.9955 20.9729 28.0004 20.95 28.0005 20.9242L29.5005 20.9286C29.4998 21.1478 29.457 21.3588 29.3791 21.5527L27.9873 20.9933ZM27.947 21.1301L28.0142 20.7835L29.4867 21.0693L29.4195 21.4159L27.947 21.1301Z" fill="#2C2543"/>
</svg>
