<svg width="26" height="28" viewBox="0 0 26 28" fill="none" xmlns="http://www.w3.org/2000/svg">
<path d="M23.0314 16.508C24.9864 15.7031 25.9615 13.3771 25.2858 11.2947L23.0314 16.508ZM23.0314 16.508V18.68C23.0314 23.5054 19.3993 27.5 14.8514 27.5C10.3034 27.5 6.67151 23.5055 6.67151 18.68V17.9919C3.068 17.2648 0.506108 13.8971 0.500001 9.98907L0.499999 9.98829L0.5 1.96554C0.5 1.19506 1.08724 0.5 1.89152 0.5H4.36015C5.16468 0.5 5.75153 1.19521 5.75153 1.96554C5.75153 2.73587 5.16468 3.43108 4.36015 3.43108H3.28315V9.9884C3.28315 12.9049 5.46461 15.2085 8.06285 15.2085C10.6611 15.2085 12.8429 12.9048 12.8429 9.9884V3.43108H11.7658C10.9614 3.43108 10.3743 2.73594 10.3743 1.96554C10.3743 1.1951 10.9615 0.5 11.7658 0.5H14.2342C15.0389 0.5 15.6258 1.19516 15.6258 1.96554V9.98764V9.98842C15.6197 13.8972 13.0577 17.265 9.45423 17.9921V18.68C9.45423 21.965 11.9127 24.5686 14.8513 24.5686C17.7899 24.5686 20.2485 21.965 20.2485 18.68V16.5079C18.7458 15.8889 17.776 14.3381 17.7799 12.6426V12.6425C17.7852 10.4067 19.4768 8.52238 21.6495 8.52255L23.0314 16.508ZM25.2857 11.2947C24.7548 9.65822 23.307 8.5226 21.6495 8.52255L25.2857 11.2947ZM21.6398 11.4544C22.1964 11.4544 22.7166 11.9582 22.7168 12.6621V12.6622C22.7162 13.3654 22.1958 13.8701 21.6394 13.8714C21.0829 13.8712 20.5627 13.3674 20.5627 12.6626C20.5627 11.9584 21.083 11.4544 21.6398 11.4544Z" fill="#6D6D6D" stroke="#6D6D6D"/>
</svg>
