<svg width="123" height="102" viewBox="0 0 123 102" fill="none" xmlns="http://www.w3.org/2000/svg">
<path d="M67.5349 73.8406C68.06 73.8424 68.5791 73.9518 69.0602 74.1621C69.5412 74.3724 69.9739 74.6792 70.3315 75.0633C71.8983 76.7874 71.8984 79.5931 70.3351 81.3145L59.7783 92.86C56.8924 96.0116 53.0568 97.7497 48.9768 97.7497C44.8967 97.7497 41.0611 96.0116 38.1763 92.86L8.91323 60.8546C3.24616 54.7288 -0.00432628 46.2166 6.27934e-05 37.4985C-0.0128463 30.4686 1.96485 23.7395 5.72177 18.0384C11.4077 9.40323 20.6188 4.24792 30.3617 4.24792C36.7457 4.24792 42.8676 6.4143 48.0655 10.51C48.3228 10.7175 48.6434 10.8309 48.9741 10.8313C49.3048 10.8316 49.6256 10.719 49.8834 10.512C55.0575 6.47466 61.1488 4.33848 67.4967 4.33848C75.6745 4.33964 83.34 7.84066 89.0853 14.197C90.8849 16.1864 92.449 18.3765 93.7466 20.7238C94.4843 22.6116 93.9273 24.8386 92.4017 26.0525C91.729 26.5988 90.8893 26.8984 90.0224 26.9012C89.3908 26.8966 88.7697 26.74 88.2116 26.4447C87.6534 26.1495 87.1747 25.7242 86.8159 25.2049C85.8422 23.4154 84.6601 21.7471 83.2944 20.235C79.0389 15.8099 73.4625 13.3727 67.5913 13.3727C61.72 13.3727 56.1443 15.8106 51.8329 20.2974C51.4726 20.7045 51.0293 21.0299 50.5328 21.2517C50.0363 21.4735 49.4982 21.5866 48.9543 21.5834C48.4105 21.5803 47.8735 21.4609 47.3797 21.2333C46.8858 21.0057 46.4464 20.6751 46.0909 20.2638C41.886 15.6782 36.2998 13.1542 30.3627 13.1542C24.4255 13.1542 18.8391 15.6782 14.6318 20.2649C10.4086 24.9004 8.10069 31.0111 8.10263 37.5088C8.10366 44.0178 10.4225 50.1362 14.6318 54.7381L43.9245 86.7777C45.2777 88.246 47.072 89.054 48.9768 89.054C50.9044 89.054 52.7138 88.2284 54.067 86.7371L64.717 75.0874C65.0757 74.6973 65.5112 74.3852 65.996 74.1707C66.4809 73.9562 67.0047 73.8438 67.5349 73.8406Z" fill="#F0F8FF"/>
<path d="M105.13 43.0144C107.365 43.0144 109.186 45.0051 109.186 47.451C109.186 49.8969 107.365 51.886 105.13 51.886H93.5058C93.2965 51.888 93.09 51.9338 92.8995 52.0204C92.709 52.1071 92.5388 52.2327 92.3999 52.3891L82.8625 62.8838C82.5049 63.2839 82.0676 63.605 81.5787 63.8267C81.0898 64.0483 80.56 64.1656 80.0232 64.1709C79.4563 64.1446 78.9018 63.996 78.3977 63.7353C77.8937 63.4747 77.4521 63.1082 77.1032 62.661L61.3799 43.0694C61.2466 42.8937 61.0753 42.7504 60.8789 42.6499C60.6826 42.5494 60.4661 42.4944 60.2456 42.489C60.025 42.4836 59.8061 42.5279 59.6051 42.6186C59.404 42.7093 59.2259 42.8441 59.0841 43.013L51.8657 51.2146C51.5014 51.6197 51.0558 51.9435 50.558 52.1651C50.0602 52.3866 49.5213 52.501 48.9764 52.5007H37.7472C35.511 52.5007 33.6914 50.5101 33.6914 48.0634C33.6914 45.6168 35.5116 43.6291 37.7472 43.6291H46.6758C46.8843 43.6272 47.0901 43.5818 47.28 43.4956C47.4699 43.4095 47.6396 43.2845 47.7782 43.1288L57.3583 32.6515C57.4218 32.5761 57.4874 32.503 57.548 32.4417C57.9174 32.0498 58.3657 31.7406 58.8633 31.5343C59.3609 31.328 59.8966 31.2294 60.4351 31.245C60.9736 31.2606 61.5026 31.3899 61.9874 31.6246C62.4723 31.8592 62.9019 32.1939 63.248 32.6064L78.9698 52.2009C79.1036 52.3762 79.2751 52.5192 79.4715 52.6194C79.668 52.7197 79.8845 52.7746 80.105 52.78C80.3256 52.7855 80.5446 52.7414 80.7458 52.651C80.947 52.5606 81.1253 52.4262 81.2676 52.2578L88.218 44.3456C88.5778 43.936 89.0192 43.606 89.514 43.3767C90.0088 43.1474 90.5462 43.0238 91.0915 43.0139L105.13 43.0144Z" fill="#F0F8FF"/>
</svg>
